<?xml version="1.0" encoding="UTF-8"?>
<svg id="Layer_2" data-name="Layer 2" xmlns="http://www.w3.org/2000/svg" viewBox="0 0 394 394">
  <defs>
    <style>
      .cls-1 {
        fill: #fff;
      }
    </style>
  </defs>
  <g id="Layer_1-2" data-name="Layer 1">
    <g>
      <circle class="cls-1" cx="197" cy="197" r="196.5"/>
      <path d="m197,1c26.46,0,52.13,5.18,76.29,15.4,23.34,9.87,44.3,24,62.3,42,18,18,32.13,38.96,42,62.3,10.22,24.16,15.4,49.83,15.4,76.29s-5.18,52.13-15.4,76.29c-9.87,23.34-24,44.3-42,62.3-18,18-38.96,32.13-62.3,42-24.16,10.22-49.83,15.4-76.29,15.4s-52.13-5.18-76.29-15.4c-23.34-9.87-44.3-24-62.3-42-18-18-32.13-38.96-42-62.3C6.18,249.13,1,223.46,1,197s5.18-52.13,15.4-76.29c9.87-23.34,24-44.3,42-62.3,18-18,38.96-32.13,62.3-42C144.87,6.18,170.54,1,197,1m0-1C88.2,0,0,88.2,0,197s88.2,197,197,197,197-88.2,197-197S305.8,0,197,0h0Z"/>
    </g>
  </g>
</svg>