<?xml version="1.0" encoding="utf-8"?>
<!-- Generator: Adobe Illustrator 28.2.0, SVG Export Plug-In . SVG Version: 6.00 Build 0)  -->
<svg version="1.1" id="Layer_2_00000123442934897277037540000012051784105296006019_"
	 xmlns="http://www.w3.org/2000/svg" xmlns:xlink="http://www.w3.org/1999/xlink" x="0px" y="0px" viewBox="0 0 394 394"
	 style="enable-background:new 0 0 394 394;" xml:space="preserve">
<style type="text/css">
	.st0{fill:#FFFFFF;}
</style>
<g id="Layer_1-2">
	<g>
		<circle class="st0" cx="197" cy="197" r="196.5"/>
		<path class="st0" d="M197,1c26.5,0,52.1,5.2,76.3,15.4c23.3,9.9,44.3,24,62.3,42s32.1,39,42,62.3c10.2,24.2,15.4,49.8,15.4,76.3
			s-5.2,52.1-15.4,76.3c-9.9,23.3-24,44.3-42,62.3s-39,32.1-62.3,42C249.1,387.8,223.5,393,197,393s-52.1-5.2-76.3-15.4
			c-23.3-9.9-44.3-24-62.3-42s-32.1-39-42-62.3C6.2,249.1,1,223.5,1,197s5.2-52.1,15.4-76.3c9.9-23.3,24-44.3,42-62.3
			s39-32.1,62.3-42C144.9,6.2,170.5,1,197,1 M197,0C88.2,0,0,88.2,0,197s88.2,197,197,197s197-88.2,197-197S305.8,0,197,0L197,0z"/>
	</g>
</g>
</svg>
